<svg width="20" height="18" viewBox="0 0 20 18" fill="none" xmlns="http://www.w3.org/2000/svg">
<path fill-rule="evenodd" clip-rule="evenodd" d="M18.125 0.458008H1.875C0.840037 0.459385 0.0013772 1.29804 0 2.33301V11.4997C0.0013772 12.5346 0.840037 13.3733 1.875 13.3747H8.54167C8.77179 13.3747 8.95833 13.5612 8.95833 13.7913V15.0413C8.95833 15.2715 8.77179 15.458 8.54167 15.458H6.04167C5.46637 15.458 5 15.9244 5 16.4997C5 17.075 5.46637 17.5413 6.04167 17.5413H13.9583C14.5336 17.5413 15 17.075 15 16.4997C15 15.9244 14.5336 15.458 13.9583 15.458H11.4583C11.2282 15.458 11.0417 15.2715 11.0417 15.0413V13.7913C11.0417 13.5612 11.2282 13.3747 11.4583 13.3747H18.125C19.16 13.3733 19.9986 12.5346 20 11.4997V2.33301C19.9986 1.29804 19.16 0.459385 18.125 0.458008ZM17.9167 10.8747C17.9167 11.1048 17.7301 11.2913 17.5 11.2913H2.5C2.26988 11.2913 2.08333 11.1048 2.08333 10.8747V2.95801C2.08333 2.72789 2.26988 2.54134 2.5 2.54134H17.5C17.7301 2.54134 17.9167 2.72789 17.9167 2.95801V10.8747Z" fill="#1D1D1B"/>
</svg>
